HIERARCHY
ROOT Hips
{
  OFFSET 52.8468 91.6337 4.76765
  CHANNELS 6 Xposition Yposition Zposition Zrotation Xrotation Yrotation
  JOINT spine
  {
    OFFSET 0 6.84637 0.3937
    CHANNELS 3 Zrotation Xrotation Yrotation
    JOINT spine1
    {
      OFFSET 0 9.49621 0
      CHANNELS 3 Zrotation Xrotation Yrotation
      JOINT spine2
      {
        OFFSET 0 9.09909 0
        CHANNELS 3 Zrotation Xrotation Yrotation
        JOINT Neck
        {
          OFFSET 0 23.3612 1.11378
          CHANNELS 3 Zrotation Xrotation Yrotation
          JOINT Head
          {
            OFFSET 0 7.05802 0
            CHANNELS 3 Zrotation Xrotation Yrotation
            End Site
            {
              OFFSET 0 17.0844 -5.63419
            }
          }
        }
        JOINT RightShoulder
        {
          OFFSET -3.83136 9.82631 -0.533491
          CHANNELS 3 Zrotation Xrotation Yrotation
          JOINT RightArm
          {
            OFFSET 0 12.8881 0
            CHANNELS 3 Zrotation Xrotation Yrotation
            JOINT RightArmRoll
            {
              OFFSET 0 6.50617 0
              CHANNELS 3 Zrotation Xrotation Yrotation
              JOINT RightForeArm
              {
                OFFSET 0 18.9501 0
                CHANNELS 3 Zrotation Xrotation Yrotation
                JOINT RightForeArmRoll
                {
                  OFFSET 0 7.30092 0
                  CHANNELS 3 Zrotation Xrotation Yrotation
                  JOINT RightHand
                  {
                    OFFSET 0 14.6514 0
                    CHANNELS 3 Zrotation Xrotation Yrotation
                    End Site
                    {
                      OFFSET 0 0 0
                    }
                  }
                }
              }
            }
          }
        }
        JOINT LeftShoulder
        {
          OFFSET 3.83136 9.82631 -0.533491
          CHANNELS 3 Zrotation Xrotation Yrotation
          JOINT LeftArm
          {
            OFFSET 0 12.8881 0
            CHANNELS 3 Zrotation Xrotation Yrotation
            JOINT LeftArmRoll
            {
              OFFSET 0 6.50617 0
              CHANNELS 3 Zrotation Xrotation Yrotation
              JOINT LeftForeArm
              {
                OFFSET 0 18.9501 0
                CHANNELS 3 Zrotation Xrotation Yrotation
                JOINT LeftForeArmRoll
                {
                  OFFSET 0 7.30092 0
                  CHANNELS 3 Zrotation Xrotation Yrotation
                  JOINT LeftHand
                  {
                    OFFSET 0 14.6514 0
                    CHANNELS 3 Zrotation Xrotation Yrotation
                    End Site
                    {
                      OFFSET 0 0 0
                    }
                  }
                }
              }
            }
          }
        }
      }
    }
  }
  JOINT RightUpLeg
  {
    OFFSET -6.06837 -1.11278 -0.933477
    CHANNELS 3 Zrotation Xrotation Yrotation
    JOINT RightUpLegRoll
    {
      OFFSET 0 17.1796 0
      CHANNELS 3 Zrotation Xrotation Yrotation
      JOINT RightLeg
      {
        OFFSET 0 -21.2743 0
        CHANNELS 3 Zrotation Xrotation Yrotation
        JOINT RightLegRoll
        {
          OFFSET 0 21.3439 0
          CHANNELS 3 Zrotation Xrotation Yrotation
          JOINT RightFoot
          {
            OFFSET 0 17.7652 0
            CHANNELS 3 Zrotation Xrotation Yrotation
            JOINT RightToeBase
            {
              OFFSET 0 14.8508 0
              CHANNELS 3 Zrotation Xrotation Yrotation
              End Site
              {
                OFFSET 0.0062947 7.19214 -0.829004
              }
            }
          }
        }
      }
    }
  }
  JOINT LeftUpLeg
  {
    OFFSET 6.06837 -1.11278 -0.933477
    CHANNELS 3 Zrotation Xrotation Yrotation
    JOINT LeftUpLegRoll
    {
      OFFSET 0 17.1797 0
      CHANNELS 3 Zrotation Xrotation Yrotation
      JOINT LeftLeg
      {
        OFFSET 0 21.2742 0
        CHANNELS 3 Zrotation Xrotation Yrotation
        JOINT LeftLegRoll
        {
          OFFSET 0 21.5412 0
          CHANNELS 3 Zrotation Xrotation Yrotation
          JOINT LeftFoot
          {
            OFFSET 0 17.5679 0
            CHANNELS 3 Zrotation Xrotation Yrotation
            JOINT LeftToeBase
            {
              OFFSET 0 14.8508 0
              CHANNELS 3 Zrotation Xrotation Yrotation
              End Site
              {
                OFFSET -0.0282102 7.19214 -0.829005
              }
            }
          }
        }
      }
    }
  }
}
MOTION
Frames: 9
Frame Time: 0.00208333
53.6455 91.6083 5.15134 -0.856641 -2.54145 -5.72864 0.136035 -1.53674 -0.152623 0.269119 0.928972 -0.319257 0.273446 2.57403 -0.323951 -0.447401 24.2063 -0.534085 -1.2363 -7.88776 -0.911474 73.6416 3.95715 0.0986954 100.798 2.1417 15.4263 -1.24578e-005 1.25045e-006 1.14935e-006 10.1168 19.2704 -3.09803 -8.0315e-006 -5.18162e-006 -3 8.029 -4.95153 0.697711 -71.3864 6.35887 -1.57497 -103.54 3.6076 -24.836 -6.96839e-010 -1.44771e-008 2.82981e-006 -10.7865 6.17847 1.05156 4.28272e-006 -5.28104e-006 3.00837 -8.02892 -4.95146 -0.697705 176.143 2.08035 1.07232 180 7.01556e-015 178.962 177.389 4.76604 179.983 6.41127e-007 1.71655e-006 0.0408525 -18.553 67.8145 19.382 8.1365 25.2327 -3.48774 -174.996 -3.63647 -0.294064 4.54188e-006 -4.6773e-006 -1.15456 -1.64385 -4.93149 0.054575 -1.13125e-006 -3.04726e-006 -0.068582 18.894 68.244 -19.7274 -8.13649 25.2327 3.48774 
53.6521 91.6078 5.12856 -0.865969 -2.54367 -5.73962 0.136162 -1.53775 -0.157218 0.269309 0.926949 -0.328488 0.273723 2.57201 -0.333186 -0.443177 24.2363 -0.512528 -1.25216 -7.88318 -0.890829 73.6588 3.96687 0.100477 100.775 2.18547 15.4768 -1.24578e-005 1.25045e-006 1.14935e-006 10.0767 19.2187 -3.08663 -8.0315e-006 -5.18162e-006 -3 8.029 -4.95153 0.697711 -71.3755 6.36436 -1.57951 -103.565 3.59822 -24.8664 -6.96844e-010 -1.44771e-008 2.82981e-006 -10.7588 6.15847 1.04719 4.28272e-006 -5.28104e-006 3.00837 -8.02892 -4.95146 -0.697705 176.152 2.07702 1.06585 180 7.01556e-015 178.962 177.391 4.76147 179.983 6.41127e-007 1.71655e-006 0.0408525 -18.5549 67.8168 19.384 8.1365 25.2327 -3.48774 -174.987 -3.63597 -0.299088 4.54188e-006 -4.6773e-006 -1.15459 -1.64346 -4.94046 0.0542883 -1.13125e-006 -3.04726e-006 -0.068582 18.8994 68.2503 -19.7332 -8.13649 25.2327 3.48774 
53.6555 91.6117 5.12504 -0.875534 -2.54649 -5.75017 0.136225 -1.53862 -0.162083 0.269367 0.925199 -0.33827 0.273872 2.57026 -0.342971 -0.437301 24.2663 -0.490842 -1.26934 -7.87851 -0.869603 73.6771 3.97713 0.102336 100.752 2.22978 15.5273 -1.24578e-005 1.25045e-006 1.14935e-006 10.0366 19.1659 -3.07508 -8.0315e-006 -5.18162e-006 -3 8.029 -4.95153 0.697711 -71.3632 6.36918 -1.584 -103.591 3.58832 -24.8974 -6.96822e-010 -1.44771e-008 2.82981e-006 -10.7302 6.13863 1.04282 4.28272e-006 -5.28104e-006 3.00837 -8.02892 -4.95146 -0.697705 176.161 2.0726 1.05947 180 7.01556e-015 178.962 177.394 4.75668 179.982 6.41127e-007 1.71655e-006 0.0408525 -18.557 67.8193 19.3862 8.1365 25.2327 -3.48774 -174.977 -3.63632 -0.304098 4.54188e-006 -4.6773e-006 -1.15462 -1.64289 -4.94933 0.0539886 -1.13125e-006 -3.04726e-006 -0.068582 18.9048 68.2566 -19.7391 -8.13649 25.2327 3.48774 
53.6611 91.6157 5.15738 -0.885265 -2.54975 -5.76041 0.136243 -1.53939 -0.167136 0.269331 0.92364 -0.348438 0.273932 2.5687 -0.35314 -0.430277 24.2964 -0.469064 -1.28744 -7.87376 -0.84797 73.6961 3.98777 0.10425 100.729 2.27445 15.5778 -1.24578e-005 1.25045e-006 1.14935e-006 9.9965 19.1124 -3.06344 -8.0315e-006 -5.18162e-006 -3 8.029 -4.95153 0.697711 -71.3499 6.37352 -1.58845 -103.62 3.57806 -24.9288 -6.96834e-010 -1.44771e-008 2.82981e-006 -10.7009 6.1189 1.03844 4.28272e-006 -5.28104e-006 3.00837 -8.02892 -4.95146 -0.697705 176.17 2.06743 1.05315 180 7.01556e-015 178.962 177.396 4.75172 179.982 6.41127e-007 1.71655e-006 0.0408525 -18.559 67.8218 19.3885 8.1365 25.2327 -3.48774 -174.968 -3.63727 -0.309098 4.54188e-006 -4.6773e-006 -1.15467 -1.6422 -4.95813 0.0536798 -1.13125e-006 -3.04726e-006 -0.0685821 18.9103 68.263 -19.745 -8.13649 25.2327 3.48774 
53.6603 91.6135 5.1405 -0.895091 -2.55324 -5.77047 0.136235 -1.54011 -0.172298 0.269242 0.922191 -0.358827 0.273941 2.56724 -0.363528 -0.422606 24.3265 -0.447227 -1.30607 -7.86898 -0.826105 73.7156 3.99862 0.106196 100.706 2.31932 15.6282 -1.24578e-005 1.25045e-006 1.14935e-006 9.95641 19.0584 -3.05174 -8.0315e-006 -5.18162e-006 -3 8.029 -4.95153 0.697711 -71.3359 6.3776 -1.59288 -103.649 3.56759 -24.9606 -6.96836e-010 -1.44771e-008 2.82981e-006 -10.6713 6.09924 1.03406 4.28272e-006 -5.28104e-006 3.00837 -8.02892 -4.95146 -0.697705 176.179 2.06182 1.04686 180 7.01556e-015 178.962 177.398 4.74667 179.981 6.41127e-007 1.71655e-006 0.0408525 -18.5611 67.8244 19.3907 8.1365 25.2327 -3.48774 -174.958 -3.63856 -0.314093 4.54188e-006 -4.6773e-006 -1.15472 -1.64144 -4.9669 0.0533658 -1.13125e-006 -3.04726e-006 -0.0685821 18.9158 68.2694 -19.7509 -8.13649 25.2327 3.48774 
53.6647 91.6133 5.11808 -0.904943 -2.55679 -5.7805 0.136221 -1.54081 -0.177486 0.269139 0.920769 -0.36927 0.273937 2.56582 -0.373971 -0.414794 24.3566 -0.425368 -1.32484 -7.86419 -0.804182 73.7351 4.00953 0.108149 100.682 2.36422 15.6787 -1.24578e-005 1.25045e-006 1.14935e-006 9.91634 19.0043 -3.04005 -8.0315e-006 -5.18162e-006 -3 8.029 -4.95153 0.697711 -71.3218 6.3816 -1.59731 -103.679 3.55708 -24.9924 -6.96821e-010 -1.44771e-008 2.82981e-006 -10.6417 6.0796 1.02967 4.28272e-006 -5.28104e-006 3.00837 -8.02892 -4.95146 -0.697705 176.189 2.0561 1.04059 180 7.01556e-015 178.962 177.4 4.74161 179.981 6.41127e-007 1.71655e-006 0.0408525 -18.5632 67.8269 19.393 8.1365 25.2327 -3.48774 -174.949 -3.63993 -0.319086 4.54188e-006 -4.6773e-006 -1.15477 -1.64066 -4.97566 0.0530505 -1.13125e-006 -3.04726e-006 -0.0685821 18.9213 68.2758 -19.7568 -8.13649 25.2327 3.48774 
53.6652 91.616 5.119 -0.914748 -2.56023 -5.7906 0.136219 -1.54154 -0.182621 0.269062 0.919293 -0.379603 0.273958 2.56434 -0.384305 -0.407341 24.3867 -0.403523 -1.34335 -7.85941 -0.782376 73.7545 4.02033 0.110087 100.659 2.40899 15.7291 -1.24578e-005 1.25045e-006 1.14935e-006 9.8763 18.9504 -3.02839 -8.0315e-006 -5.18162e-006 -3 8.029 -4.95153 0.697711 -71.308 6.38574 -1.60175 -103.708 3.54668 -25.024 -6.96853e-010 -1.44771e-008 2.82981e-006 -10.6122 6.05993 1.02529 4.28272e-006 -5.28104e-006 3.00837 -8.02892 -4.95146 -0.697705 176.198 2.0506 1.03429 180 7.01556e-015 178.962 177.402 4.73657 179.981 6.41127e-007 1.71655e-006 0.0408525 -18.5653 67.8295 19.3953 8.1365 25.2327 -3.48774 -174.939 -3.64114 -0.324083 4.54188e-006 -4.6773e-006 -1.15482 -1.63991 -4.98444 0.0527377 -1.13125e-006 -3.04726e-006 -0.0685822 18.9268 68.2822 -19.7628 -8.13649 25.2327 3.48774 
53.673 91.6136 5.09133 -0.924437 -2.56336 -5.80093 0.136249 -1.54234 -0.18762 0.26905 0.91768 -0.389661 0.274042 2.56273 -0.394364 -0.400752 24.4168 -0.381727 -1.3612 -7.85468 -0.760862 73.7733 4.03086 0.111986 100.636 2.45346 15.7797 -1.24578e-005 1.25045e-006 1.14935e-006 9.83631 18.8971 -3.01682 -8.0315e-006 -5.18162e-006 -3 8.029 -4.95153 0.697711 -71.2949 6.39022 -1.60621 -103.736 3.53654 -25.0554 -6.96816e-010 -1.44771e-008 2.82981e-006 -10.5831 6.04017 1.02092 4.28272e-006 -5.28104e-006 3.00837 -8.02892 -4.95146 -0.697705 176.207 2.04564 1.02795 180 7.01556e-015 178.962 177.404 4.73166 179.98 6.41127e-007 1.71655e-006 0.0408525 -18.5674 67.832 19.3975 8.1365 25.2327 -3.48774 -174.93 -3.64192 -0.329086 4.54188e-006 -4.6773e-006 -1.15486 -1.63926 -4.99326 0.0524315 -1.13125e-006 -3.04726e-006 -0.0685822 18.9323 68.2886 -19.7687 -8.13649 25.2327 3.48774 
53.6733 91.6098 5.0889 -0.933938 -2.566 -5.81161 0.13633 -1.54325 -0.192404 0.269143 0.915848 -0.399278 0.274225 2.56089 -0.403983 -0.39553 24.4467 -0.360016 -1.37801 -7.85003 -0.739813 73.7912 4.04096 0.113822 100.612 2.49745 15.8302 -1.24578e-005 1.25045e-006 1.14935e-006 9.79637 18.8447 -3.00538 -8.0315e-006 -5.18162e-006 -3 8.029 -4.95153 0.697711 -71.283 6.39524 -1.61072 -103.762 3.52681 -25.0862 -6.9682e-010 -1.44771e-008 2.82981e-006 -10.5548 6.02028 1.01655 4.28272e-006 -5.28104e-006 3.00837 -8.02892 -4.95146 -0.697705 176.216 2.04155 1.02155 180 7.01556e-015 178.962 177.406 4.72694 179.98 6.41127e-007 1.71655e-006 0.0408525 -18.5694 67.8344 19.3997 8.1365 25.2327 -3.48774 -174.92 -3.64202 -0.3341 4.54188e-006 -4.6773e-006 -1.1549 -1.63875 -5.00216 0.0521356 -1.13125e-006 -3.04726e-006 -0.0685822 18.9377 68.2949 -19.7745 -8.13649 25.2327 3.48774 
